<?xml version="1.0" encoding="UTF-8"?>
<svg id="Capa_1" data-name="Capa 1" xmlns="http://www.w3.org/2000/svg" viewBox="0 0 50 50">
  <defs>
    <style>
      .cls-1 {
        fill: none;
        stroke: #fff;
        stroke-linecap: round;
        stroke-linejoin: round;
        stroke-width: 2px;
      }
    </style>
  </defs>
  <path class="cls-1" d="M47.76,6.2h-5.06c-.5,0-.92.37-.98.87l-.66,5.31c-.12.99-.97,1.73-1.96,1.73H5.21c-.94,0-1.83.45-2.39,1.21-.56.76-.72,1.75-.44,2.64l3.09,9.89c.39,1.24,1.53,2.08,2.83,2.08h28.57c1.09,0,1.98.89,1.98,1.98s-.89,1.98-1.98,1.98H9.17"/>
  <line class="cls-1" x1="39.84" y1="18.07" x2="38.85" y2="26.98"/>
  <circle class="cls-1" cx="13.13" cy="40.83" r="2.97"/>
  <circle class="cls-1" cx="34.9" cy="40.83" r="2.97"/>
</svg>